<svg width="345" height="50" viewBox="0 0 345 50" fill="none" xmlns="http://www.w3.org/2000/svg">
<rect width="345" height="50" rx="5" fill="#6A19F5"/>
<path d="M78.862 32H76.288L75.298 29.102H70.744L69.754 32H67.216L71.554 20.12H74.524L78.862 32ZM71.302 27.266H74.74L73.012 22.082L71.302 27.266ZM89.3909 20.12V22.118H85.4129V32H82.9289V22.118H78.9329V20.12H89.3909ZM101.717 20.12V22.118H97.7387V32H95.2547V22.118H91.2587V20.12H101.717ZM104.646 32V20.12H113.556V22.118H107.13V25.07H112.188V26.978H107.13V30.002H113.808V32H104.646ZM127.143 20.12V32H124.299L120.141 25.016L119.115 23.072H119.097L119.169 25.124V32H116.937V20.12H119.763L123.921 27.086L124.947 29.048H124.983L124.911 26.996V20.12H127.143ZM135.734 20.12C137.594 20.12 139.034 20.636 140.054 21.668C141.074 22.688 141.584 24.152 141.584 26.06C141.584 27.956 141.074 29.42 140.054 30.452C139.034 31.484 137.594 32 135.734 32H131.144V20.12H135.734ZM135.608 30.02C136.736 30.02 137.582 29.684 138.146 29.012C138.722 28.328 139.01 27.344 139.01 26.06C139.01 24.776 138.722 23.798 138.146 23.126C137.582 22.442 136.736 22.1 135.608 22.1H133.628V30.02H135.608ZM161.187 32H158.613L157.623 29.102H153.069L152.079 32H149.541L153.879 20.12H156.849L161.187 32ZM153.627 27.266H157.065L155.337 22.082L153.627 27.266ZM171.623 32L168.167 20.12H170.813L173.153 29.93L175.529 20.12H177.905L180.317 29.93L182.639 20.12H185.177L181.721 32H178.931L177.275 25.52L176.717 22.712H176.681L176.123 25.52L174.485 32H171.623ZM192.893 19.94C194.069 19.94 195.083 20.186 195.935 20.678C196.787 21.17 197.441 21.872 197.897 22.784C198.365 23.696 198.599 24.788 198.599 26.06C198.599 27.332 198.365 28.424 197.897 29.336C197.441 30.248 196.787 30.95 195.935 31.442C195.083 31.934 194.069 32.18 192.893 32.18C191.717 32.18 190.697 31.934 189.833 31.442C188.981 30.95 188.321 30.248 187.853 29.336C187.397 28.424 187.169 27.332 187.169 26.06C187.169 24.788 187.397 23.696 187.853 22.784C188.321 21.872 188.981 21.17 189.833 20.678C190.697 20.186 191.717 19.94 192.893 19.94ZM192.893 21.974C192.221 21.974 191.651 22.13 191.183 22.442C190.715 22.754 190.355 23.216 190.103 23.828C189.863 24.428 189.743 25.172 189.743 26.06C189.743 26.936 189.863 27.68 190.103 28.292C190.355 28.904 190.715 29.366 191.183 29.678C191.651 29.99 192.221 30.146 192.893 30.146C193.553 30.146 194.117 29.99 194.585 29.678C195.053 29.366 195.407 28.904 195.647 28.292C195.899 27.68 196.025 26.936 196.025 26.06C196.025 25.172 195.899 24.428 195.647 23.828C195.407 23.216 195.053 22.754 194.585 22.442C194.117 22.13 193.553 21.974 192.893 21.974ZM207.243 20.12C208.587 20.12 209.643 20.444 210.411 21.092C211.179 21.74 211.563 22.61 211.563 23.702C211.563 24.866 211.179 25.76 210.411 26.384C209.643 26.996 208.593 27.302 207.261 27.302L207.009 27.446H204.453V32H202.005V20.12H207.243ZM206.955 25.556C207.651 25.556 208.167 25.418 208.503 25.142C208.851 24.854 209.025 24.416 209.025 23.828C209.025 23.24 208.851 22.808 208.503 22.532C208.167 22.244 207.651 22.1 206.955 22.1H204.453V25.556H206.955ZM208.413 26.078L212.265 32H209.475L206.289 26.798L208.413 26.078ZM225.381 20.12L219.945 26.294L219.747 26.096L216.777 29.462L216.399 27.158L222.501 20.12H225.381ZM217.623 20.12V32H215.139V20.12H217.623ZM220.629 24.224L225.525 32H222.681L218.721 25.61L220.629 24.224ZM232.207 19.94C233.287 19.94 234.235 20.126 235.051 20.498C235.867 20.87 236.563 21.422 237.139 22.154L235.753 23.756C235.261 23.132 234.721 22.676 234.133 22.388C233.557 22.088 232.885 21.938 232.117 21.938C231.613 21.938 231.193 22.004 230.857 22.136C230.533 22.268 230.293 22.442 230.137 22.658C229.993 22.874 229.921 23.114 229.921 23.378C229.921 23.702 230.047 23.978 230.299 24.206C230.551 24.422 230.983 24.602 231.595 24.746L233.809 25.25C234.985 25.514 235.825 25.91 236.329 26.438C236.845 26.954 237.103 27.626 237.103 28.454C237.103 29.234 236.899 29.906 236.491 30.47C236.083 31.022 235.513 31.448 234.781 31.748C234.049 32.036 233.209 32.18 232.261 32.18C231.433 32.18 230.671 32.084 229.975 31.892C229.291 31.688 228.679 31.412 228.139 31.064C227.599 30.716 227.149 30.314 226.789 29.858L228.193 28.184C228.469 28.568 228.811 28.91 229.219 29.21C229.627 29.51 230.089 29.75 230.605 29.93C231.133 30.098 231.685 30.182 232.261 30.182C232.753 30.182 233.167 30.128 233.503 30.02C233.851 29.9 234.109 29.738 234.277 29.534C234.457 29.318 234.547 29.06 234.547 28.76C234.547 28.448 234.439 28.184 234.223 27.968C234.019 27.74 233.635 27.566 233.071 27.446L230.659 26.906C229.963 26.738 229.363 26.522 228.859 26.258C228.367 25.982 227.989 25.634 227.725 25.214C227.473 24.782 227.347 24.272 227.347 23.684C227.347 22.976 227.539 22.34 227.923 21.776C228.307 21.212 228.859 20.768 229.579 20.444C230.311 20.108 231.187 19.94 232.207 19.94ZM250.559 20.12V32H248.075V20.12H250.559ZM242.837 20.12V32H240.353V20.12H242.837ZM249.371 24.998V26.996H241.595V24.998H249.371ZM259.69 19.94C260.866 19.94 261.88 20.186 262.732 20.678C263.584 21.17 264.238 21.872 264.694 22.784C265.162 23.696 265.396 24.788 265.396 26.06C265.396 27.332 265.162 28.424 264.694 29.336C264.238 30.248 263.584 30.95 262.732 31.442C261.88 31.934 260.866 32.18 259.69 32.18C258.514 32.18 257.494 31.934 256.63 31.442C255.778 30.95 255.118 30.248 254.65 29.336C254.194 28.424 253.966 27.332 253.966 26.06C253.966 24.788 254.194 23.696 254.65 22.784C255.118 21.872 255.778 21.17 256.63 20.678C257.494 20.186 258.514 19.94 259.69 19.94ZM259.69 21.974C259.018 21.974 258.448 22.13 257.98 22.442C257.512 22.754 257.152 23.216 256.9 23.828C256.66 24.428 256.54 25.172 256.54 26.06C256.54 26.936 256.66 27.68 256.9 28.292C257.152 28.904 257.512 29.366 257.98 29.678C258.448 29.99 259.018 30.146 259.69 30.146C260.35 30.146 260.914 29.99 261.382 29.678C261.85 29.366 262.204 28.904 262.444 28.292C262.696 27.68 262.822 26.936 262.822 26.06C262.822 25.172 262.696 24.428 262.444 23.828C262.204 23.216 261.85 22.754 261.382 22.442C260.914 22.13 260.35 21.974 259.69 21.974ZM273.788 20.12C274.7 20.12 275.48 20.276 276.128 20.588C276.776 20.888 277.274 21.326 277.622 21.902C277.982 22.466 278.162 23.15 278.162 23.954C278.162 24.758 277.982 25.448 277.622 26.024C277.274 26.588 276.776 27.026 276.128 27.338C275.48 27.638 274.7 27.788 273.788 27.788H271.286V32H268.802V20.12H273.788ZM273.41 25.826C274.154 25.826 274.712 25.67 275.084 25.358C275.456 25.034 275.642 24.566 275.642 23.954C275.642 23.33 275.456 22.862 275.084 22.55C274.712 22.238 274.154 22.082 273.41 22.082H271.286V25.826H273.41Z" fill="white"/>
</svg>
